<?xml version="1.0" standalone="no"?>
<!DOCTYPE svg PUBLIC "-//W3C//DTD SVG 20010904//EN"
 "http://www.w3.org/TR/2001/REC-SVG-20010904/DTD/svg10.dtd">
<svg version="1.0" xmlns="http://www.w3.org/2000/svg"
 width="500.000000pt" height="500.000000pt" viewBox="0 0 500.000000 500.000000"
 preserveAspectRatio="xMidYMid meet">

<g transform="translate(0.000000,500.000000) scale(0.100000,-0.100000)"
fill="#000000" stroke="none">
<path d="M865 4989 c-406 -59 -723 -343 -833 -744 l-27 -100 0 -1645 0 -1645
28 -100 c104 -378 387 -650 761 -732 76 -17 185 -18 1706 -18 1521 0 1630 1
1706 18 374 82 657 354 761 732 l28 100 0 1645 0 1645 -27 100 c-54 198 -184
404 -327 519 -131 106 -235 159 -399 204 l-97 27 -1610 1 c-885 1 -1637 -2
-1670 -7z m2348 -31 c17 -13 94 -55 171 -93 115 -57 142 -75 144 -94 6 -41 -8
-72 -42 -92 -32 -19 -33 -21 -23 -50 9 -24 9 -35 -3 -57 -21 -37 -64 -40 -144
-8 -36 14 -74 26 -85 26 -25 0 -44 -28 -66 -97 -21 -64 -53 -96 -91 -91 -24 2
-30 8 -32 35 -2 17 4 66 13 109 10 51 14 96 9 131 -6 47 -4 57 16 78 17 18 25
45 34 108 16 118 38 139 99 95z m-1378 -58 c26 0 174 -273 221 -407 l18 -52
-24 -26 c-13 -14 -30 -25 -37 -25 -8 0 -33 20 -55 45 -66 73 -156 123 -172 96
-5 -8 7 -61 33 -149 8 -28 6 -36 -16 -62 -33 -40 -51 -38 -98 10 -21 21 -42
37 -46 34 -4 -2 -13 -30 -20 -62 -20 -100 -77 -152 -167 -152 -49 0 -51 -1
-57 -32 -9 -41 -30 -66 -72 -83 -24 -10 -33 -20 -33 -37 0 -14 -22 -49 -54
-85 -30 -34 -68 -82 -85 -106 -19 -26 -45 -48 -66 -56 -26 -9 -35 -18 -35 -35
0 -13 -12 -41 -27 -62 -14 -21 -42 -72 -61 -112 -39 -81 -67 -103 -128 -99
-50 3 -52 -5 -53 -229 -1 -175 -2 -182 -23 -196 -27 -18 -39 -97 -42 -291 -3
-149 -3 -152 -59 -164 -25 -5 -28 -9 -22 -32 8 -36 79 -183 121 -252 66 -110
35 -162 -124 -204 -35 -9 -78 -23 -97 -32 l-33 -16 39 -38 c22 -22 45 -39 50
-39 6 0 36 24 66 54 87 86 135 96 155 34 8 -23 1 -37 -57 -110 -91 -115 -87
-122 52 -100 70 12 99 7 108 -15 11 -31 -8 -53 -104 -117 -104 -69 -114 -78
-141 -129 -14 -26 -24 -32 -56 -35 -37 -2 -54 -8 -140 -50 -35 -17 -36 -17
-59 10 -53 62 -40 370 21 490 l13 26 -47 6 c-76 9 -79 10 -100 36 -91 117
-155 351 -105 387 23 18 43 16 66 -5 19 -16 20 -16 31 2 20 36 57 64 93 73 44
10 50 23 25 53 -28 34 -111 40 -163 10 -37 -20 -41 -21 -64 -6 -85 56 -3 256
169 414 25 24 46 47 46 53 0 5 -20 18 -45 29 -25 11 -48 26 -51 35 -3 8 -10
13 -14 10 -15 -9 -22 79 -18 192 5 118 34 215 70 234 27 14 57 2 69 -28 7 -19
14 -23 27 -18 75 33 92 35 121 20 25 -12 31 -13 41 0 24 29 4 50 -105 116 -72
43 -111 72 -113 85 -2 11 11 32 30 51 32 31 36 32 73 22 21 -6 93 -35 160 -64
66 -29 129 -56 141 -59 25 -8 47 15 102 106 35 58 38 69 27 86 -8 10 -65 57
-127 105 -140 106 -158 123 -158 147 0 29 62 72 94 64 14 -3 85 -48 158 -100
73 -52 141 -94 151 -94 18 0 43 23 104 97 33 40 34 43 19 70 -8 15 -35 53 -60
83 -49 58 -76 107 -76 135 0 13 -6 16 -25 11 -60 -15 -56 108 5 139 57 30 95
11 84 -41 -5 -27 -1 -31 48 -56 29 -16 57 -28 62 -28 5 0 6 44 2 100 -6 83 -4
106 10 135 24 51 69 86 102 79 15 -3 37 -7 49 -10 12 -2 52 -27 89 -55 63 -47
94 -56 94 -27 0 8 -8 44 -19 81 -16 57 -17 73 -6 103 20 58 46 63 125 24 19
-10 45 -21 57 -24 21 -7 22 -4 20 42 -3 62 15 86 56 78 16 -3 35 -6 42 -6z
m1914 -187 c26 -33 22 -47 -38 -138 -56 -84 -91 -186 -71 -210 29 -35 56 -18
122 71 105 145 117 155 161 148 52 -9 63 -33 43 -91 -26 -76 -23 -83 32 -80
37 1 62 -6 122 -37 77 -40 190 -120 190 -136 0 -5 11 -20 25 -34 14 -14 25
-34 25 -44 0 -27 -34 -54 -62 -50 -18 2 -24 -2 -26 -22 -8 -75 -14 -92 -41
-108 -23 -14 -27 -21 -20 -40 12 -32 35 -27 124 28 138 86 133 84 161 65 13
-8 24 -23 24 -33 0 -9 3 -26 6 -38 7 -26 -27 -61 -155 -159 -53 -40 -105 -82
-115 -94 -19 -21 -19 -22 2 -64 62 -121 74 -137 98 -137 13 0 88 29 166 64
189 84 182 82 207 50 28 -35 27 -75 -2 -102 -13 -12 -88 -55 -168 -95 -83 -41
-145 -79 -147 -88 -2 -9 11 -55 29 -102 l31 -87 36 0 c21 1 66 8 102 17 65 16
119 20 153 11 51 -13 131 -198 143 -329 4 -53 2 -70 -11 -83 -22 -22 -62 -20
-76 3 -11 17 -15 15 -54 -26 -39 -40 -46 -44 -77 -38 -32 6 -36 4 -61 -34 -22
-33 -25 -45 -17 -61 15 -28 47 -33 176 -27 l115 6 20 -32 c27 -45 25 -103 -7
-148 -44 -64 -265 -223 -361 -259 -65 -25 -136 -27 -168 -6 -52 34 -68 133
-42 247 8 30 12 71 9 91 -3 31 0 39 33 63 20 16 45 46 56 68 20 38 20 41 4 91
-9 28 -45 110 -81 182 -63 128 -74 167 -54 179 15 9 12 42 -4 48 -7 3 -17 18
-20 34 -4 15 -26 71 -48 123 -25 59 -40 109 -39 131 0 23 -4 39 -13 42 -7 3
-31 34 -52 69 -21 35 -54 86 -74 113 -43 60 -46 86 -17 138 l22 40 -37 31
c-20 17 -96 63 -169 101 -73 39 -137 78 -143 87 -7 12 -7 30 2 62 6 25 13 51
14 58 2 10 -18 13 -84 13 -72 0 -91 3 -115 21 -37 28 -73 91 -73 131 0 17 -4
43 -9 56 -7 18 -4 49 10 109 23 96 61 155 147 225 65 53 109 58 141 16z
m-1250 -547 c6 -8 9 -33 6 -62 -4 -35 -3 -43 4 -29 8 16 10 12 10 -22 1 -28 6
-43 14 -43 6 0 64 23 127 51 63 28 120 52 125 54 6 3 21 -5 34 -16 l24 -20
-20 -27 c-11 -15 -49 -45 -85 -66 l-66 -40 24 -18 c53 -43 134 -216 134 -289
0 -18 -3 -29 -7 -26 -3 4 -15 -1 -25 -10 -20 -18 -45 -11 -58 18 -61 131 -169
283 -198 277 -22 -4 -28 -105 -12 -207 8 -46 8 -77 2 -83 -6 -6 1 -20 19 -38
35 -35 37 -70 7 -113 -27 -38 -29 -105 -5 -189 8 -29 22 -84 31 -123 10 -42
29 -88 48 -114 27 -38 30 -47 21 -72 -14 -36 11 -89 67 -144 l39 -38 36 27
c57 44 68 67 61 133 -8 65 3 92 62 158 31 34 34 36 51 21 27 -25 46 -19 84 24
53 57 89 133 78 162 -11 30 12 76 45 88 50 20 83 12 104 -22 11 -18 20 -43 20
-54 0 -28 -37 -74 -59 -74 -34 0 -49 -32 -60 -130 -11 -92 -40 -258 -59 -330
-4 -19 -5 -69 -1 -110 4 -41 8 -95 8 -119 1 -37 -1 -42 -16 -36 -38 16 -253
64 -353 79 -58 9 -159 19 -225 22 -106 5 -141 2 -300 -25 -99 -18 -188 -34
-197 -37 -16 -5 -18 2 -18 53 0 107 -32 172 -111 224 -45 29 -79 90 -79 140 0
33 2 34 30 17 29 -18 34 -4 16 49 -9 26 -22 77 -29 113 -10 52 -18 67 -37 77
-60 29 -77 89 -39 137 25 32 70 35 99 6 15 -15 20 -33 20 -71 0 -42 6 -62 34
-103 18 -28 46 -76 61 -106 64 -127 204 -310 238 -310 3 0 26 28 51 63 32 44
45 73 45 97 3 183 7 226 27 260 13 23 29 36 46 38 22 3 26 11 41 75 22 92 22
95 -8 123 -38 35 -37 97 1 132 l26 22 -24 19 c-23 19 -23 21 -26 271 -3 250
-3 253 19 276 25 27 61 31 78 10z m-283 -54 c109 -79 179 -368 116 -478 -60
-104 -180 -106 -250 -4 -60 89 -79 257 -43 380 11 36 20 58 20 50 1 -8 9 -1
17 17 10 19 30 37 52 47 48 20 43 20 88 -12z m-411 -117 c31 -6 119 -109 159
-184 87 -167 82 -292 -16 -342 -30 -16 -53 -20 -85 -16 -29 3 -43 1 -43 -7 0
-14 -59 -71 -115 -111 -22 -15 -75 -64 -118 -108 -74 -76 -78 -79 -100 -64
-14 10 -21 24 -20 41 2 34 -79 126 -112 126 -25 0 -58 37 -48 53 7 11 -87 108
-99 101 -14 -9 -76 16 -82 33 -12 29 27 77 87 107 79 40 254 65 334 48 69 -14
83 -26 83 -67 0 -28 -7 -37 -45 -62 l-44 -29 109 -1 109 -1 -34 52 c-53 81
-78 166 -78 269 0 49 4 92 10 95 5 4 12 15 16 24 9 26 68 60 92 53 11 -3 29
-8 40 -10z m1671 -113 c50 -49 116 -108 147 -131 66 -51 77 -73 50 -110 -31
-41 -68 -40 -117 6 -54 52 -162 143 -169 143 -9 0 -27 -64 -20 -70 5 -4 40
-28 80 -54 91 -59 133 -99 133 -124 0 -19 -42 -62 -60 -62 -4 0 -47 29 -95 65
-48 36 -93 65 -100 65 -7 0 -15 -10 -19 -23 -9 -36 -82 -144 -106 -157 -31
-17 -70 -5 -70 21 0 12 22 65 50 120 39 77 48 103 41 121 -12 32 3 66 32 73
18 5 30 22 50 74 15 38 27 74 27 81 0 17 30 50 44 50 6 0 52 -40 102 -88z
m-447 -67 c62 -19 101 -53 101 -90 0 -37 -23 -41 -88 -12 -31 14 -83 33 -114
42 -32 9 -60 21 -64 26 -3 6 5 22 17 36 27 28 48 27 148 -2z m834 -213 c64
-58 29 -119 -46 -81 -26 13 -77 66 -77 79 0 32 88 33 123 2z m-79 -78 c22 -21
20 -43 -6 -73 -20 -21 -20 -23 -3 -11 11 8 -16 -24 -60 -70 -45 -47 -102 -110
-128 -141 -39 -47 -53 -56 -77 -55 -34 2 -56 21 -65 56 -8 35 39 103 152 217
85 86 95 93 132 93 23 0 46 -7 55 -16z m-400 -299 c7 -19 -10 -65 -24 -65 -17
0 -23 30 -12 56 13 27 27 31 36 9z m356 -165 c28 -28 25 -56 -7 -77 -15 -10
-43 -34 -62 -55 l-36 -36 -30 25 -29 26 32 27 c19 16 32 36 32 50 0 54 62 78
100 40z m-2300 -117 c43 -24 51 -26 73 -14 32 17 61 7 76 -25 6 -15 10 -28 9
-29 -2 -1 -23 -9 -48 -19 -25 -9 -54 -28 -65 -41 l-20 -24 -86 89 -85 90 49 0
c35 0 63 -8 97 -27z m1382 -407 c69 -9 166 -24 215 -34 l88 -18 7 -49 c3 -28
7 -82 7 -122 l1 -72 -62 18 c-67 19 -150 33 -313 52 -125 14 -537 6 -648 -14
-91 -16 -82 -27 -92 120 -7 107 -19 96 130 113 252 30 465 31 667 6z m118
-282 c8 -3 47 -9 85 -14 39 -5 79 -11 90 -13 19 -4 20 -15 29 -340 5 -184 6
-347 2 -361 -8 -31 -31 -34 -46 -7 -6 12 -10 128 -10 305 0 161 -4 286 -9 286
-15 0 -19 -39 -16 -155 3 -117 -5 -155 -30 -155 -26 0 -33 40 -34 186 -1 119
-3 141 -18 152 -9 7 -22 11 -28 9 -6 -2 -12 -52 -15 -118 -4 -101 -7 -114 -24
-117 -29 -6 -36 16 -36 121 l0 97 -29 0 c-17 0 -33 -5 -37 -11 -8 -13 -14
-262 -13 -564 0 -115 0 -228 -1 -250 -1 -22 2 -68 5 -102 l7 -62 31 6 c117 22
350 130 472 219 91 67 133 73 49 8 -126 -99 -301 -188 -466 -239 l-88 -27 -1
-72 c-2 -132 -12 -190 -33 -194 -30 -6 -36 16 -36 142 0 108 -1 118 -17 111
-10 -4 -85 -9 -168 -12 -163 -6 -310 10 -439 47 -38 11 -73 17 -78 14 -5 -3
-17 1 -26 9 -9 8 -66 40 -127 70 -60 31 -135 71 -165 91 -80 52 -33 45 54 -7
81 -49 207 -110 214 -103 2 3 6 53 9 113 4 87 10 118 29 157 13 28 24 64 25
80 1 26 3 24 11 -14 5 -25 7 -116 4 -206 l-6 -162 77 -20 c43 -12 114 -26 158
-33 89 -13 322 -15 400 -2 l50 8 -2 40 c-1 22 -2 254 -2 516 -1 536 0 526 -65
495 -40 -19 -42 -25 -50 -145 -6 -88 -20 -115 -43 -84 -8 10 -13 50 -13 103 0
73 -3 90 -19 104 -19 17 -20 17 -30 -3 -7 -13 -11 -142 -11 -384 0 -378 -2
-400 -40 -377 -11 7 -15 33 -16 107 0 54 -2 139 -3 188 -1 50 1 124 4 165 8
83 -9 289 -25 320 -13 23 -38 26 -66 6 -17 -13 -19 -29 -21 -176 -1 -183 -5
-210 -32 -210 -26 0 -31 25 -32 180 -1 168 -5 184 -45 188 -18 2 -36 -3 -43
-12 -9 -11 -12 -110 -12 -405 1 -347 -1 -392 -16 -406 -14 -14 -18 -15 -30 -2
-12 12 -15 77 -18 373 -3 364 -7 424 -30 424 -19 0 -25 -23 -26 -103 -1 -50
-5 -27 -11 72 -5 79 -7 145 -4 148 2 2 51 8 107 13 104 8 761 3 789 -6z m1374
-240 c9 -8 16 -19 16 -23 0 -15 98 -51 138 -51 28 0 45 -7 61 -24 31 -33 105
-60 146 -53 69 11 93 -12 80 -80 -16 -86 -227 -243 -350 -259 -40 -6 -47 -4
-74 24 -17 17 -31 38 -31 46 0 19 -37 21 -75 4 -34 -15 -32 -46 6 -119 41 -77
57 -81 160 -40 96 37 129 39 165 8 52 -45 24 -75 -156 -170 -53 -27 -59 -51
-37 -127 14 -47 14 -52 -4 -74 -10 -13 -19 -29 -19 -35 0 -17 -40 -33 -65 -27
-23 6 -45 43 -88 148 -9 21 -25 47 -36 60 -12 12 -21 35 -21 52 0 16 -25 87
-55 158 -30 70 -55 138 -55 149 0 12 15 35 34 53 18 17 37 41 41 54 4 13 25
55 47 94 22 39 51 101 65 137 41 110 68 134 107 95z m-1737 -393 c11 -41 3
-68 -16 -57 -13 8 -15 96 -2 96 5 0 13 -18 18 -39z m-1522 -141 c36 -22 107
-61 158 -86 141 -71 150 -79 145 -128 -4 -26 -20 -63 -48 -102 -30 -44 -40
-67 -36 -82 7 -20 8 -20 79 10 50 22 94 32 142 35 93 6 109 -5 106 -76 -1 -42
-17 -86 -82 -224 -113 -242 -144 -282 -189 -242 -29 27 -33 69 -14 150 28 120
2 124 -100 15 -62 -68 -63 -68 -123 -11 -28 27 -28 24 2 105 14 37 25 69 25
73 0 3 -18 3 -40 0 -32 -4 -53 2 -112 32 -40 21 -97 54 -125 75 -67 48 -133
129 -126 156 8 30 30 43 62 37 29 -6 29 -5 29 36 -1 56 16 86 53 94 27 5 29 8
29 54 0 40 5 53 34 83 18 20 41 36 50 36 8 0 45 -18 81 -40z m2071 -135 c7
-40 2 -50 -21 -42 -20 8 -21 77 0 77 8 0 17 -14 21 -35z m-681 -55 c0 -27 -22
-39 -31 -16 -8 22 3 49 19 43 6 -2 12 -14 12 -27z m1351 -85 c97 -29 177 -128
190 -236 12 -112 -48 -279 -104 -287 -22 -3 -36 8 -105 92 -41 49 -60 56 -76
29 -5 -10 -24 -22 -42 -28 -30 -10 -33 -16 -36 -56 -2 -39 8 -78 39 -145 36
-77 -65 -109 -272 -84 -96 11 -194 35 -240 60 -17 9 -21 8 -19 -2 2 -7 0 -35
-4 -63 -6 -46 -11 -53 -55 -82 -119 -80 -320 -132 -365 -94 -22 17 -22 60 0
76 15 11 12 16 -25 52 -34 33 -42 47 -42 76 0 32 -3 37 -24 37 -13 0 -26 -6
-29 -14 -3 -8 -24 -25 -45 -38 -33 -18 -48 -38 -83 -110 -68 -138 -105 -164
-170 -117 -32 23 -59 97 -59 162 0 22 -11 64 -25 93 -24 50 -24 55 -11 95 11
30 13 66 9 125 -5 68 -3 88 11 109 9 14 21 25 26 25 21 0 48 -40 74 -109 19
-49 33 -71 44 -71 26 0 40 13 56 50 8 19 28 50 45 68 50 54 97 38 116 -40 4
-16 10 -28 14 -28 31 0 136 42 237 96 67 35 130 64 141 64 20 0 63 -40 80 -75
6 -11 18 -54 28 -95 9 -41 24 -85 32 -98 l14 -23 34 28 c48 40 44 63 -21 134
-49 53 -55 64 -52 96 3 32 7 38 36 45 30 8 37 5 84 -37 64 -58 99 -81 118 -80
16 0 16 -1 4 132 -5 65 -4 72 14 82 29 15 44 7 92 -50 44 -52 60 -55 60 -10 0
48 31 134 62 174 59 75 148 101 244 72z m-1682 -202 c6 -48 -1 -67 -21 -55
-12 8 -6 102 7 102 4 0 10 -21 14 -47z m-339 -8 c17 -16 25 -35 25 -58 0 -73
-100 -310 -147 -347 -22 -17 -25 -24 -15 -44 26 -57 -98 -94 -145 -43 -37 39
-34 71 7 86 24 8 30 16 30 39 0 30 69 220 117 324 26 55 36 63 86 67 10 0 29
-10 42 -24z m301 -102 c23 -23 14 -110 -25 -233 -43 -135 -42 -143 24 -185 30
-20 62 -46 71 -60 23 -35 15 -86 -17 -104 -25 -14 -43 -11 -245 39 -121 30
-219 54 -220 54 -1 1 -4 13 -8 28 -5 21 0 35 25 63 28 31 36 35 83 35 97 0
100 4 176 258 24 80 36 105 53 112 35 14 64 11 83 -7z"/>
<path d="M4487 2408 c-38 -29 -63 -150 -34 -161 19 -7 116 34 161 68 52 40 67
64 55 87 -8 15 -22 18 -87 18 -47 0 -85 -5 -95 -12z"/>
<path d="M2492 4025 c0 -16 2 -22 5 -12 2 9 2 23 0 30 -3 6 -5 -1 -5 -18z"/>
<path d="M2761 3800 c14 -31 19 -36 19 -24 0 6 -7 19 -16 30 -14 18 -14 18 -3
-6z"/>
<path d="M2780 3755 c0 -5 5 -17 10 -25 5 -8 10 -10 10 -5 0 6 -5 17 -10 25
-5 8 -10 11 -10 5z"/>
<path d="M2463 2832 c-34 -73 -27 -124 9 -73 7 10 22 20 33 22 29 6 30 42 3
73 l-23 27 -22 -49z"/>
<path d="M2005 2795 c4 -16 13 -45 22 -62 12 -26 21 -33 45 -33 l29 0 -20 28
c-11 15 -34 43 -51 62 l-31 35 6 -30z"/>
<path d="M2946 2758 c-25 -29 -46 -56 -46 -60 0 -15 37 -8 57 12 21 19 49 87
40 96 -2 3 -25 -19 -51 -48z"/>
<path d="M2151 3945 c0 -64 7 -125 19 -170 10 -38 17 -71 15 -73 -7 -7 -36 98
-42 151 -3 31 -9 57 -13 57 -11 0 10 -130 31 -184 17 -46 18 -52 3 -63 -14
-10 -13 -13 6 -23 11 -6 33 -10 47 -8 34 4 47 48 40 133 -7 79 -52 218 -82
252 l-24 28 0 -100z"/>
<path d="M2132 3975 c0 -16 2 -22 5 -12 2 9 2 23 0 30 -3 6 -5 -1 -5 -18z"/>
<path d="M1755 3873 c12 -72 48 -174 81 -230 19 -30 27 -49 17 -42 -9 8 -33
50 -55 93 -21 44 -38 73 -38 65 1 -20 36 -96 72 -152 26 -40 29 -50 17 -58
-12 -8 -12 -10 1 -19 22 -14 56 -12 70 5 25 30 6 126 -42 216 -43 82 -101 159
-119 159 -6 0 -7 -16 -4 -37z"/>
<path d="M1751 3794 c0 -11 3 -14 6 -6 3 7 2 16 -1 19 -3 4 -6 -2 -5 -13z"/>
<path d="M1358 3576 c-32 -7 -61 -15 -64 -19 -9 -8 11 -32 47 -58 l28 -20 50
47 c70 66 58 76 -61 50z"/>
<path d="M1580 3429 c-66 -11 -120 -28 -119 -37 0 -4 21 -24 45 -46 l44 -38
47 42 c26 23 60 49 75 58 55 32 22 39 -92 21z"/>
<path d="M3430 3895 c13 -14 26 -25 28 -25 3 0 -5 11 -18 25 -13 14 -26 25
-28 25 -3 0 5 -11 18 -25z"/>
<path d="M3615 3418 l-40 -43 43 40 c39 36 47 45 39 45 -2 0 -21 -19 -42 -42z"/>
<path d="M3719 3403 c-13 -16 -12 -17 4 -4 16 13 21 21 13 21 -2 0 -10 -8 -17
-17z"/>
<path d="M2314 2478 c18 -67 19 -71 7 -64 -17 11 -13 -5 5 -19 20 -14 86 -5
92 13 5 16 -71 92 -93 92 -13 0 -16 -5 -11 -22z m63 -30 c30 -28 29 -48 -2
-48 -14 0 -25 1 -25 3 0 1 -4 17 -9 35 -11 39 2 42 36 10z"/>
<path d="M2526 2478 c-20 -28 -20 -58 -2 -83 11 -16 17 -17 29 -7 21 18 29 56
17 86 -12 32 -24 33 -44 4z m34 -28 c0 -34 -9 -60 -21 -60 -10 0 -12 60 -3 84
9 24 24 9 24 -24z"/>
<path d="M2628 2477 c-2 -13 1 -39 8 -57 11 -32 13 -33 15 -10 1 14 1 36 0 50
-2 24 -2 24 19 5 15 -14 17 -20 8 -27 -8 -4 -8 -8 -2 -8 24 0 23 15 -3 42 -32
34 -39 35 -45 5z"/>
<path d="M2198 2484 c-22 -21 -2 -86 32 -104 29 -15 54 26 44 74 -9 52 -25 44
-17 -9 5 -37 3 -45 -10 -45 -20 0 -29 15 -36 58 -3 19 -9 30 -13 26z"/>
<path d="M2095 2458 c-12 -52 -9 -108 5 -108 6 0 10 11 10 25 0 31 12 32 34 3
l17 -23 -7 25 c-8 35 -33 88 -44 95 -5 3 -12 -4 -15 -17z"/>
<path d="M2453 2435 c-1 -25 3 -45 8 -45 5 0 9 20 9 45 0 59 -14 59 -17 0z"/>
<path d="M2740 2454 c-13 -32 -13 -51 0 -75 13 -23 43 -25 60 -4 16 20 27 100
12 91 -7 -4 -12 -17 -12 -30 0 -12 -6 -31 -14 -42 -14 -18 -15 -18 -24 6 -6
15 -6 35 -1 48 11 30 11 32 -1 32 -6 0 -15 -12 -20 -26z"/>
<path d="M2860 2405 c-7 -30 -11 -57 -9 -59 2 -2 19 -6 37 -9 37 -7 44 10 8
19 -23 5 -24 9 -19 55 8 65 -1 62 -17 -6z"/>
<path d="M2986 2421 c-10 -16 -14 -111 -4 -105 4 3 8 14 8 26 0 17 5 19 28 14
25 -5 26 -5 5 6 -13 6 -23 18 -23 26 0 12 4 11 21 -4 22 -19 22 -19 11 2 -16
30 -39 47 -46 35z"/>
<path d="M3660 1080 c-19 -19 -29 -77 -11 -66 25 16 77 -10 133 -67 54 -55 61
-59 75 -44 33 32 -18 151 -77 182 -41 21 -96 19 -120 -5z"/>
</g>
</svg>
